<svg width="7" height="10" viewBox="0 0 7 10" fill="none" xmlns="http://www.w3.org/2000/svg">
<path id="Vector" d="M1.99805 9.88281C1.95247 9.9349 1.91341 9.96745 1.88086 9.98047C1.84831 9.99349 1.81901 10 1.79297 10C1.7474 10 1.70182 9.99023 1.65625 9.9707C1.61068 9.95117 1.55859 9.91536 1.5 9.86328L0.943359 9.30664L0.933594 9.29688C0.888021 9.25781 0.857096 9.21875 0.84082 9.17969C0.824544 9.14062 0.816406 9.09831 0.816406 9.05273C0.816406 9.01367 0.824544 8.97461 0.84082 8.93555C0.857096 8.89648 0.888021 8.85742 0.933594 8.81836L0.943359 8.80859L4.71289 5L0.933594 1.18164C0.888021 1.14258 0.857096 1.10352 0.84082 1.06445C0.824544 1.02539 0.816406 0.986328 0.816406 0.947266C0.816406 0.914714 0.824544 0.877278 0.84082 0.834961C0.857096 0.792644 0.894531 0.742188 0.953125 0.683594L1.50977 0.126953L1.51953 0.117188C1.55859 0.0716143 1.59766 0.0406904 1.63672 0.0244141C1.67578 0.0081377 1.7181 0 1.76367 0C1.80273 0 1.8418 0.0081377 1.88086 0.0244141C1.91992 0.0406904 1.95898 0.0716143 1.99805 0.117188L2.00781 0.126953L6.65625 4.74609C6.6888 4.77865 6.71484 4.81608 6.73438 4.8584C6.75391 4.90072 6.76367 4.94792 6.76367 5C6.76367 5.05208 6.75391 5.09928 6.73438 5.1416C6.71484 5.18392 6.6888 5.22135 6.65625 5.25391L1.99805 9.88281Z" fill="#8A8A8A"/>
</svg>
