<svg width="10" height="6" viewBox="0 0 10 6" fill="none" xmlns="http://www.w3.org/2000/svg">
<path id="Vector" d="M0.289062 5.44336C0.230469 5.37305 0.201172 5.30469 0.201172 5.23828C0.201172 5.17188 0.230469 5.10742 0.289062 5.04492L4.83008 0.09375C4.88477 0.03125 4.94141 0 5 0C5.05859 0 5.11719 0.03125 5.17578 0.09375L9.7168 5.04492C9.77148 5.10742 9.79883 5.17188 9.79883 5.23828C9.79883 5.30469 9.77148 5.37305 9.7168 5.44336L9.2832 5.89453C9.22461 5.96484 9.16504 6 9.10449 6C9.04395 6 8.98047 5.96484 8.91406 5.89453L5 1.65234L1.08594 5.89453C1.02344 5.96484 0.960938 6 0.898438 6C0.835938 6 0.777344 5.96484 0.722656 5.89453L0.289062 5.44336Z" fill="#56AA36"/>
</svg>
