<svg width="6" height="6" viewBox="0 0 6 6" fill="none" xmlns="http://www.w3.org/2000/svg">
<path id="Vector" d="M0.808594 0.527344L5.47266 5.19141C5.56641 5.28516 5.61328 5.39746 5.61328 5.52832C5.61328 5.65918 5.56641 5.76953 5.47266 5.85938C5.38281 5.95312 5.27246 6 5.1416 6C5.01074 6 4.89844 5.95312 4.80469 5.85938L0.140625 1.19531C0.046875 1.10156 0 0.989258 0 0.858398C0 0.727539 0.046875 0.617188 0.140625 0.527344C0.234375 0.433594 0.345703 0.386719 0.474609 0.386719C0.603516 0.386719 0.714844 0.433594 0.808594 0.527344ZM0.140625 5.19141L4.80469 0.527344C4.89844 0.433594 5.01074 0.386719 5.1416 0.386719C5.27246 0.386719 5.38281 0.433594 5.47266 0.527344C5.56641 0.617188 5.61328 0.727539 5.61328 0.858398C5.61328 0.989258 5.56641 1.10156 5.47266 1.19531L0.808594 5.85938C0.714844 5.95312 0.602539 6 0.47168 6C0.34082 6 0.230469 5.95312 0.140625 5.85938C0.046875 5.76953 0 5.65918 0 5.52832C0 5.39746 0.046875 5.28516 0.140625 5.19141Z" fill="#161616"/>
</svg>
